<svg xmlns="http://www.w3.org/2000/svg" width="1250" height="720" viewBox="0 0 1250 720">
<defs>
  <marker id="oarrow" markerWidth="10" markerHeight="10" refX="9" refY="3.5" orient="auto">
    <path d="M0,0 L9,3.5 L0,7" fill="none" stroke="#6b7280" stroke-width="1.2"/>
  </marker>
  <marker id="tri" markerWidth="12" markerHeight="12" refX="11" refY="5" orient="auto">
    <path d="M0,0 L11,5 L0,10 Z" fill="#ffffff" stroke="#6b7280" stroke-width="1.2"/>
  </marker>
</defs>
<rect width="1250" height="720" fill="#ffffff"/>
<text x="24" y="30" font-family="Segoe UI, Helvetica, Arial, sans-serif" font-size="15" font-weight="700" fill="#1f2933">Diagrama 4 - Modulo Montacarguista</text>
<rect x="296" y="62" width="660" height="620" rx="10" fill="#f8fafc" stroke="#1f2933" stroke-width="1.4"/>
<text x="626.0" y="86" font-family="Segoe UI, Helvetica, Arial, sans-serif" font-size="12.5" font-weight="700" fill="#1f2933" text-anchor="middle" letter-spacing="0.6">MODULO MONTACARGUISTA</text>
<circle cx="155" cy="309" r="9" fill="none" stroke="#1f2933" stroke-width="2"/>
<line x1="155" y1="318" x2="155" y2="344" stroke="#1f2933" stroke-width="2"/>
<line x1="140" y1="327" x2="170" y2="327" stroke="#1f2933" stroke-width="2"/>
<line x1="155" y1="344" x2="142" y2="364" stroke="#1f2933" stroke-width="2"/>
<line x1="155" y1="344" x2="168" y2="364" stroke="#1f2933" stroke-width="2"/>
<text x="155" y="380" font-family="Segoe UI, Helvetica, Arial, sans-serif" font-size="12" font-weight="600" fill="#1f2933" text-anchor="middle">Montacarguista</text>
<circle cx="1105" cy="97" r="9" fill="none" stroke="#6b7280" stroke-width="2"/>
<line x1="1105" y1="106" x2="1105" y2="132" stroke="#6b7280" stroke-width="2"/>
<line x1="1090" y1="115" x2="1120" y2="115" stroke="#6b7280" stroke-width="2"/>
<line x1="1105" y1="132" x2="1092" y2="152" stroke="#6b7280" stroke-width="2"/>
<line x1="1105" y1="132" x2="1118" y2="152" stroke="#6b7280" stroke-width="2"/>
<text x="1105" y="168" font-family="Segoe UI, Helvetica, Arial, sans-serif" font-size="12" font-weight="600" fill="#6b7280" text-anchor="middle">Supervisor</text>
<circle cx="1105" cy="289" r="9" fill="none" stroke="#6b7280" stroke-width="2"/>
<line x1="1105" y1="298" x2="1105" y2="324" stroke="#6b7280" stroke-width="2"/>
<line x1="1090" y1="307" x2="1120" y2="307" stroke="#6b7280" stroke-width="2"/>
<line x1="1105" y1="324" x2="1092" y2="344" stroke="#6b7280" stroke-width="2"/>
<line x1="1105" y1="324" x2="1118" y2="344" stroke="#6b7280" stroke-width="2"/>
<text x="1105" y="360" font-family="Segoe UI, Helvetica, Arial, sans-serif" font-size="12" font-weight="600" fill="#6b7280" text-anchor="middle">Chofer</text>
<circle cx="1105" cy="577" r="9" fill="none" stroke="#6b7280" stroke-width="2"/>
<line x1="1105" y1="586" x2="1105" y2="612" stroke="#6b7280" stroke-width="2"/>
<line x1="1090" y1="595" x2="1120" y2="595" stroke="#6b7280" stroke-width="2"/>
<line x1="1105" y1="612" x2="1092" y2="632" stroke="#6b7280" stroke-width="2"/>
<line x1="1105" y1="612" x2="1118" y2="632" stroke="#6b7280" stroke-width="2"/>
<text x="1105" y="648" font-family="Segoe UI, Helvetica, Arial, sans-serif" font-size="12" font-weight="600" fill="#6b7280" text-anchor="middle">Administrador de</text>
<text x="1105" y="662" font-family="Segoe UI, Helvetica, Arial, sans-serif" font-size="12" font-weight="600" fill="#6b7280" text-anchor="middle">taller</text>
<line x1="155.0" y1="332.0" x2="389.0" y2="151.6" stroke="#6b7280" stroke-width="1.3"/>
<line x1="155.0" y1="332.0" x2="364.6" y2="243.6" stroke="#6b7280" stroke-width="1.3"/>
<line x1="155.0" y1="332.0" x2="321.1" y2="319.9" stroke="#6b7280" stroke-width="1.3"/>
<line x1="155.0" y1="332.0" x2="347.2" y2="385.1" stroke="#6b7280" stroke-width="1.3"/>
<line x1="155.0" y1="332.0" x2="381.1" y2="473.4" stroke="#6b7280" stroke-width="1.3"/>
<line x1="155.0" y1="332.0" x2="396.7" y2="567.5" stroke="#6b7280" stroke-width="1.3"/>
<line x1="1105.0" y1="120.0" x2="542.0" y2="120.0" stroke="#6b7280" stroke-width="1.3"/>
<line x1="1105.0" y1="312.0" x2="542.0" y2="312.0" stroke="#6b7280" stroke-width="1.3"/>
<line x1="1105.0" y1="600.0" x2="531.4" y2="518.4" stroke="#6b7280" stroke-width="1.3"/>
<line x1="542.0" y1="504.0" x2="698.0" y2="504.0" stroke="#6b7280" stroke-width="1.2" stroke-dasharray="6 4" marker-end="url(#oarrow)"/>
<rect x="588.0" y="496.0" width="64" height="15" fill="#ffffff" opacity="0.95"/>
<text x="620.0" y="507.0" font-family="Segoe UI, Helvetica, Arial, sans-serif" font-size="9.5" fill="#6b7280" text-anchor="middle">&#171;include&#187;</text>
<ellipse cx="430" cy="120" rx="112" ry="34" fill="#ffffff" stroke="#1d4ed8" stroke-width="1.6"/>
<text x="430" y="112" font-family="Segoe UI, Helvetica, Arial, sans-serif" font-size="11.5" fill="#1f2933" text-anchor="middle">Recibir alerta de unidad</text>
<text x="430" y="126" font-family="Segoe UI, Helvetica, Arial, sans-serif" font-size="11.5" fill="#1f2933" text-anchor="middle">varada</text>
<text x="430" y="141" font-family="Segoe UI, Helvetica, Arial, sans-serif" font-size="9" fill="#6b7280" text-anchor="middle" letter-spacing="0.4">CU-MON-01</text>
<ellipse cx="430" cy="216" rx="112" ry="34" fill="#ffffff" stroke="#1d4ed8" stroke-width="1.6"/>
<text x="430" y="208" font-family="Segoe UI, Helvetica, Arial, sans-serif" font-size="11.5" fill="#1f2933" text-anchor="middle">Aceptar o rechazar el</text>
<text x="430" y="222" font-family="Segoe UI, Helvetica, Arial, sans-serif" font-size="11.5" fill="#1f2933" text-anchor="middle">arrastre</text>
<text x="430" y="237" font-family="Segoe UI, Helvetica, Arial, sans-serif" font-size="9" fill="#6b7280" text-anchor="middle" letter-spacing="0.4">CU-MON-02</text>
<ellipse cx="430" cy="312" rx="112" ry="34" fill="#ffffff" stroke="#1d4ed8" stroke-width="1.6"/>
<text x="430" y="304" font-family="Segoe UI, Helvetica, Arial, sans-serif" font-size="11.5" fill="#1f2933" text-anchor="middle">Transmitir mi ubicacion en</text>
<text x="430" y="318" font-family="Segoe UI, Helvetica, Arial, sans-serif" font-size="11.5" fill="#1f2933" text-anchor="middle">tiempo real</text>
<text x="430" y="333" font-family="Segoe UI, Helvetica, Arial, sans-serif" font-size="9" fill="#6b7280" text-anchor="middle" letter-spacing="0.4">CU-MON-03</text>
<ellipse cx="430" cy="408" rx="112" ry="34" fill="#ffffff" stroke="#1d4ed8" stroke-width="1.6"/>
<text x="430" y="407" font-family="Segoe UI, Helvetica, Arial, sans-serif" font-size="11.5" fill="#1f2933" text-anchor="middle">Registrar llegada al sitio</text>
<text x="430" y="422" font-family="Segoe UI, Helvetica, Arial, sans-serif" font-size="9" fill="#6b7280" text-anchor="middle" letter-spacing="0.4">CU-MON-04</text>
<ellipse cx="430" cy="504" rx="112" ry="34" fill="#ffffff" stroke="#1d4ed8" stroke-width="1.6"/>
<text x="430" y="496" font-family="Segoe UI, Helvetica, Arial, sans-serif" font-size="11.5" fill="#1f2933" text-anchor="middle">Cerrar arrastre y</text>
<text x="430" y="510" font-family="Segoe UI, Helvetica, Arial, sans-serif" font-size="11.5" fill="#1f2933" text-anchor="middle">registrar taller destino</text>
<text x="430" y="525" font-family="Segoe UI, Helvetica, Arial, sans-serif" font-size="9" fill="#6b7280" text-anchor="middle" letter-spacing="0.4">CU-MON-05</text>
<ellipse cx="430" cy="600" rx="112" ry="34" fill="#ffffff" stroke="#1d4ed8" stroke-width="1.6"/>
<text x="430" y="592" font-family="Segoe UI, Helvetica, Arial, sans-serif" font-size="11.5" fill="#1f2933" text-anchor="middle">Consultar historial de</text>
<text x="430" y="606" font-family="Segoe UI, Helvetica, Arial, sans-serif" font-size="11.5" fill="#1f2933" text-anchor="middle">arrastres</text>
<text x="430" y="621" font-family="Segoe UI, Helvetica, Arial, sans-serif" font-size="9" fill="#6b7280" text-anchor="middle" letter-spacing="0.4">CU-MON-07</text>
<ellipse cx="810" cy="504" rx="112" ry="34" fill="#ffffff" stroke="#1d4ed8" stroke-width="1.6"/>
<text x="810" y="496" font-family="Segoe UI, Helvetica, Arial, sans-serif" font-size="11.5" fill="#1f2933" text-anchor="middle">Adjuntar evidencia</text>
<text x="810" y="510" font-family="Segoe UI, Helvetica, Arial, sans-serif" font-size="11.5" fill="#1f2933" text-anchor="middle">fotografica</text>
<text x="810" y="525" font-family="Segoe UI, Helvetica, Arial, sans-serif" font-size="9" fill="#6b7280" text-anchor="middle" letter-spacing="0.4">CU-MON-06</text>
<text x="24" y="702" font-family="Segoe UI, Helvetica, Arial, sans-serif" font-size="10.5" fill="#6b7280">CU-MON-05 deja registro de: taller destino, unidad arrastrada, chofer responsable y hora de cierre.</text>
</svg>