<svg xmlns="http://www.w3.org/2000/svg" width="1250" height="1020" viewBox="0 0 1250 1020">
<defs>
  <marker id="oarrow" markerWidth="10" markerHeight="10" refX="9" refY="3.5" orient="auto">
    <path d="M0,0 L9,3.5 L0,7" fill="none" stroke="#6b7280" stroke-width="1.2"/>
  </marker>
  <marker id="tri" markerWidth="12" markerHeight="12" refX="11" refY="5" orient="auto">
    <path d="M0,0 L11,5 L0,10 Z" fill="#ffffff" stroke="#6b7280" stroke-width="1.2"/>
  </marker>
</defs>
<rect width="1250" height="1020" fill="#ffffff"/>
<text x="24" y="30" font-family="Segoe UI, Helvetica, Arial, sans-serif" font-size="15" font-weight="700" fill="#1f2933">Diagrama 4 - Administrador: compras y enlace (Erick)</text>
<rect x="296" y="62" width="660" height="890" rx="10" fill="#f8fafc" stroke="#1f2933" stroke-width="1.4"/>
<text x="626.0" y="86" font-family="Segoe UI, Helvetica, Arial, sans-serif" font-size="12.5" font-weight="700" fill="#1f2933" text-anchor="middle" letter-spacing="0.6">MODULO ADMINISTRADOR  -  COMPRAS Y ENLACE</text>
<circle cx="155" cy="97" r="9" fill="none" stroke="#6b7280" stroke-width="2"/>
<line x1="155" y1="106" x2="155" y2="132" stroke="#6b7280" stroke-width="2"/>
<line x1="140" y1="115" x2="170" y2="115" stroke="#6b7280" stroke-width="2"/>
<line x1="155" y1="132" x2="142" y2="152" stroke="#6b7280" stroke-width="2"/>
<line x1="155" y1="132" x2="168" y2="152" stroke="#6b7280" stroke-width="2"/>
<text x="155" y="168" font-family="Segoe UI, Helvetica, Arial, sans-serif" font-size="12" font-weight="600" fill="#6b7280" text-anchor="middle">Mecanico</text>
<text x="155" y="182" font-family="Segoe UI, Helvetica, Arial, sans-serif" font-size="12" font-weight="600" fill="#6b7280" text-anchor="middle">asistido</text>
<text x="155" y="196" font-family="Segoe UI, Helvetica, Arial, sans-serif" font-size="12" font-weight="600" fill="#6b7280" text-anchor="middle">(Alamos, sin</text>
<text x="155" y="210" font-family="Segoe UI, Helvetica, Arial, sans-serif" font-size="12" font-weight="600" fill="#6b7280" text-anchor="middle">app)</text>
<circle cx="155" cy="409" r="9" fill="none" stroke="#1f2933" stroke-width="2"/>
<line x1="155" y1="418" x2="155" y2="444" stroke="#1f2933" stroke-width="2"/>
<line x1="140" y1="427" x2="170" y2="427" stroke="#1f2933" stroke-width="2"/>
<line x1="155" y1="444" x2="142" y2="464" stroke="#1f2933" stroke-width="2"/>
<line x1="155" y1="444" x2="168" y2="464" stroke="#1f2933" stroke-width="2"/>
<text x="155" y="480" font-family="Segoe UI, Helvetica, Arial, sans-serif" font-size="12" font-weight="600" fill="#1f2933" text-anchor="middle">Erick (compras y</text>
<text x="155" y="494" font-family="Segoe UI, Helvetica, Arial, sans-serif" font-size="12" font-weight="600" fill="#1f2933" text-anchor="middle">enlace)</text>
<circle cx="1105" cy="289" r="9" fill="none" stroke="#6b7280" stroke-width="2"/>
<line x1="1105" y1="298" x2="1105" y2="324" stroke="#6b7280" stroke-width="2"/>
<line x1="1090" y1="307" x2="1120" y2="307" stroke="#6b7280" stroke-width="2"/>
<line x1="1105" y1="324" x2="1092" y2="344" stroke="#6b7280" stroke-width="2"/>
<line x1="1105" y1="324" x2="1118" y2="344" stroke="#6b7280" stroke-width="2"/>
<text x="1105" y="360" font-family="Segoe UI, Helvetica, Arial, sans-serif" font-size="12" font-weight="600" fill="#6b7280" text-anchor="middle">Mecanico</text>
<text x="1105" y="374" font-family="Segoe UI, Helvetica, Arial, sans-serif" font-size="12" font-weight="600" fill="#6b7280" text-anchor="middle">autonomo</text>
<circle cx="1105" cy="385" r="9" fill="none" stroke="#6b7280" stroke-width="2"/>
<line x1="1105" y1="394" x2="1105" y2="420" stroke="#6b7280" stroke-width="2"/>
<line x1="1090" y1="403" x2="1120" y2="403" stroke="#6b7280" stroke-width="2"/>
<line x1="1105" y1="420" x2="1092" y2="440" stroke="#6b7280" stroke-width="2"/>
<line x1="1105" y1="420" x2="1118" y2="440" stroke="#6b7280" stroke-width="2"/>
<text x="1105" y="456" font-family="Segoe UI, Helvetica, Arial, sans-serif" font-size="12" font-weight="600" fill="#6b7280" text-anchor="middle">Almacen de</text>
<text x="1105" y="470" font-family="Segoe UI, Helvetica, Arial, sans-serif" font-size="12" font-weight="600" fill="#6b7280" text-anchor="middle">Alamos</text>
<circle cx="1105" cy="481" r="9" fill="none" stroke="#6b7280" stroke-width="2"/>
<line x1="1105" y1="490" x2="1105" y2="516" stroke="#6b7280" stroke-width="2"/>
<line x1="1090" y1="499" x2="1120" y2="499" stroke="#6b7280" stroke-width="2"/>
<line x1="1105" y1="516" x2="1092" y2="536" stroke="#6b7280" stroke-width="2"/>
<line x1="1105" y1="516" x2="1118" y2="536" stroke="#6b7280" stroke-width="2"/>
<text x="1105" y="552" font-family="Segoe UI, Helvetica, Arial, sans-serif" font-size="12" font-weight="600" fill="#6b7280" text-anchor="middle">Proveedor</text>
<circle cx="1105" cy="673" r="9" fill="none" stroke="#6b7280" stroke-width="2"/>
<line x1="1105" y1="682" x2="1105" y2="708" stroke="#6b7280" stroke-width="2"/>
<line x1="1090" y1="691" x2="1120" y2="691" stroke="#6b7280" stroke-width="2"/>
<line x1="1105" y1="708" x2="1092" y2="728" stroke="#6b7280" stroke-width="2"/>
<line x1="1105" y1="708" x2="1118" y2="728" stroke="#6b7280" stroke-width="2"/>
<text x="1105" y="744" font-family="Segoe UI, Helvetica, Arial, sans-serif" font-size="12" font-weight="600" fill="#6b7280" text-anchor="middle">Gerente</text>
<circle cx="1105" cy="865" r="9" fill="none" stroke="#6b7280" stroke-width="2"/>
<line x1="1105" y1="874" x2="1105" y2="900" stroke="#6b7280" stroke-width="2"/>
<line x1="1090" y1="883" x2="1120" y2="883" stroke="#6b7280" stroke-width="2"/>
<line x1="1105" y1="900" x2="1092" y2="920" stroke="#6b7280" stroke-width="2"/>
<line x1="1105" y1="900" x2="1118" y2="920" stroke="#6b7280" stroke-width="2"/>
<text x="1105" y="936" font-family="Segoe UI, Helvetica, Arial, sans-serif" font-size="12" font-weight="600" fill="#6b7280" text-anchor="middle">Chofer</text>
<line x1="155.0" y1="432.0" x2="401.1" y2="152.8" stroke="#6b7280" stroke-width="1.3"/>
<line x1="155.0" y1="432.0" x2="389.6" y2="247.7" stroke="#6b7280" stroke-width="1.3"/>
<line x1="155.0" y1="432.0" x2="366.0" y2="339.9" stroke="#6b7280" stroke-width="1.3"/>
<line x1="155.0" y1="432.0" x2="322.4" y2="417.4" stroke="#6b7280" stroke-width="1.3"/>
<line x1="155.0" y1="432.0" x2="345.2" y2="481.8" stroke="#6b7280" stroke-width="1.3"/>
<line x1="155.0" y1="432.0" x2="380.2" y2="569.6" stroke="#6b7280" stroke-width="1.3"/>
<line x1="155.0" y1="432.0" x2="396.2" y2="663.6" stroke="#6b7280" stroke-width="1.3"/>
<line x1="155.0" y1="432.0" x2="404.7" y2="758.9" stroke="#6b7280" stroke-width="1.3"/>
<line x1="155.0" y1="120.0" x2="318.0" y2="120.0" stroke="#6b7280" stroke-width="1.3" stroke-dasharray="5 5"/>
<line x1="155.0" y1="120.0" x2="410.8" y2="566.5" stroke="#6b7280" stroke-width="1.3" stroke-dasharray="5 5"/>
<line x1="1105.0" y1="312.0" x2="542.0" y2="312.0" stroke="#6b7280" stroke-width="1.3"/>
<line x1="1105.0" y1="312.0" x2="474.0" y2="760.7" stroke="#6b7280" stroke-width="1.3"/>
<line x1="1105.0" y1="408.0" x2="542.0" y2="408.0" stroke="#6b7280" stroke-width="1.3"/>
<line x1="1105.0" y1="504.0" x2="542.0" y2="504.0" stroke="#6b7280" stroke-width="1.3"/>
<line x1="1105.0" y1="696.0" x2="474.0" y2="247.3" stroke="#6b7280" stroke-width="1.3"/>
<line x1="1105.0" y1="696.0" x2="542.0" y2="696.0" stroke="#6b7280" stroke-width="1.3"/>
<line x1="1105.0" y1="888.0" x2="511.7" y2="719.2" stroke="#6b7280" stroke-width="1.3"/>
<line x1="542.0" y1="120.0" x2="698.0" y2="120.0" stroke="#6b7280" stroke-width="1.2" stroke-dasharray="6 4" marker-end="url(#oarrow)"/>
<rect x="588.0" y="112.0" width="64" height="15" fill="#ffffff" opacity="0.95"/>
<text x="620.0" y="123.0" font-family="Segoe UI, Helvetica, Arial, sans-serif" font-size="9.5" fill="#6b7280" text-anchor="middle">&#171;include&#187;</text>
<ellipse cx="430" cy="120" rx="112" ry="34" fill="#ffffff" stroke="#1d4ed8" stroke-width="1.6"/>
<text x="430" y="112" font-family="Segoe UI, Helvetica, Arial, sans-serif" font-size="11.5" fill="#1f2933" text-anchor="middle">Capturar presupuesto del</text>
<text x="430" y="126" font-family="Segoe UI, Helvetica, Arial, sans-serif" font-size="11.5" fill="#1f2933" text-anchor="middle">mecanico</text>
<text x="430" y="141" font-family="Segoe UI, Helvetica, Arial, sans-serif" font-size="9" fill="#6b7280" text-anchor="middle" letter-spacing="0.4">CU-ADM-17</text>
<ellipse cx="430" cy="216" rx="112" ry="34" fill="#ffffff" stroke="#1d4ed8" stroke-width="1.6"/>
<text x="430" y="208" font-family="Segoe UI, Helvetica, Arial, sans-serif" font-size="11.5" fill="#1f2933" text-anchor="middle">Remitir presupuesto al</text>
<text x="430" y="222" font-family="Segoe UI, Helvetica, Arial, sans-serif" font-size="11.5" fill="#1f2933" text-anchor="middle">gerente</text>
<text x="430" y="237" font-family="Segoe UI, Helvetica, Arial, sans-serif" font-size="9" fill="#6b7280" text-anchor="middle" letter-spacing="0.4">CU-ADM-19</text>
<ellipse cx="430" cy="312" rx="112" ry="34" fill="#ffffff" stroke="#1d4ed8" stroke-width="1.6"/>
<text x="430" y="304" font-family="Segoe UI, Helvetica, Arial, sans-serif" font-size="11.5" fill="#1f2933" text-anchor="middle">Evaluar solicitud de pieza</text>
<text x="430" y="318" font-family="Segoe UI, Helvetica, Arial, sans-serif" font-size="11.5" fill="#1f2933" text-anchor="middle">del mecanico autonomo</text>
<text x="430" y="333" font-family="Segoe UI, Helvetica, Arial, sans-serif" font-size="9" fill="#6b7280" text-anchor="middle" letter-spacing="0.4">CU-ADM-20</text>
<ellipse cx="430" cy="408" rx="112" ry="34" fill="#ffffff" stroke="#1d4ed8" stroke-width="1.6"/>
<text x="430" y="400" font-family="Segoe UI, Helvetica, Arial, sans-serif" font-size="11.5" fill="#1f2933" text-anchor="middle">Autorizar orden de compra</text>
<text x="430" y="414" font-family="Segoe UI, Helvetica, Arial, sans-serif" font-size="11.5" fill="#1f2933" text-anchor="middle">de piezas</text>
<text x="430" y="429" font-family="Segoe UI, Helvetica, Arial, sans-serif" font-size="9" fill="#6b7280" text-anchor="middle" letter-spacing="0.4">CU-ADM-21</text>
<ellipse cx="430" cy="504" rx="112" ry="34" fill="#ffffff" stroke="#1d4ed8" stroke-width="1.6"/>
<text x="430" y="496" font-family="Segoe UI, Helvetica, Arial, sans-serif" font-size="11.5" fill="#1f2933" text-anchor="middle">Dar seguimiento a piezas</text>
<text x="430" y="510" font-family="Segoe UI, Helvetica, Arial, sans-serif" font-size="11.5" fill="#1f2933" text-anchor="middle">en camino</text>
<text x="430" y="525" font-family="Segoe UI, Helvetica, Arial, sans-serif" font-size="9" fill="#6b7280" text-anchor="middle" letter-spacing="0.4">CU-ADM-22</text>
<ellipse cx="430" cy="600" rx="112" ry="34" fill="#ffffff" stroke="#1d4ed8" stroke-width="1.6"/>
<text x="430" y="592" font-family="Segoe UI, Helvetica, Arial, sans-serif" font-size="11.5" fill="#1f2933" text-anchor="middle">Registrar aviso al</text>
<text x="430" y="606" font-family="Segoe UI, Helvetica, Arial, sans-serif" font-size="11.5" fill="#1f2933" text-anchor="middle">mecanico del resultado</text>
<text x="430" y="621" font-family="Segoe UI, Helvetica, Arial, sans-serif" font-size="9" fill="#6b7280" text-anchor="middle" letter-spacing="0.4">CU-ADM-23</text>
<ellipse cx="430" cy="696" rx="112" ry="34" fill="#ffffff" stroke="#1d4ed8" stroke-width="1.6"/>
<text x="430" y="688" font-family="Segoe UI, Helvetica, Arial, sans-serif" font-size="11.5" fill="#1f2933" text-anchor="middle">Atender aviso de</text>
<text x="430" y="702" font-family="Segoe UI, Helvetica, Arial, sans-serif" font-size="11.5" fill="#1f2933" text-anchor="middle">incumplimiento</text>
<text x="430" y="717" font-family="Segoe UI, Helvetica, Arial, sans-serif" font-size="9" fill="#6b7280" text-anchor="middle" letter-spacing="0.4">CU-ADM-24</text>
<ellipse cx="430" cy="792" rx="112" ry="34" fill="#ffffff" stroke="#1d4ed8" stroke-width="1.6"/>
<text x="430" y="784" font-family="Segoe UI, Helvetica, Arial, sans-serif" font-size="11.5" fill="#1f2933" text-anchor="middle">Autorizar traslado de</text>
<text x="430" y="798" font-family="Segoe UI, Helvetica, Arial, sans-serif" font-size="11.5" fill="#1f2933" text-anchor="middle">unidad a Alamos</text>
<text x="430" y="813" font-family="Segoe UI, Helvetica, Arial, sans-serif" font-size="9" fill="#6b7280" text-anchor="middle" letter-spacing="0.4">CU-ADM-25</text>
<ellipse cx="810" cy="120" rx="112" ry="34" fill="#ffffff" stroke="#1d4ed8" stroke-width="1.6"/>
<text x="810" y="119" font-family="Segoe UI, Helvetica, Arial, sans-serif" font-size="11.5" fill="#1f2933" text-anchor="middle">Registrar piezas faltantes</text>
<text x="810" y="134" font-family="Segoe UI, Helvetica, Arial, sans-serif" font-size="9" fill="#6b7280" text-anchor="middle" letter-spacing="0.4">CU-ADM-18</text>
<text x="24" y="978" font-family="Segoe UI, Helvetica, Arial, sans-serif" font-size="10.5" fill="#6b7280">CU-ADM-24 no aplica sancion: Erick y el gerente hablan con el chofer en persona y despues marcan el caso como atendido. Erick es el unico enlace con gerencia y hoy</text>
<text x="24" y="993" font-family="Segoe UI, Helvetica, Arial, sans-serif" font-size="10.5" fill="#6b7280">no tiene suplente nombrado.</text>
</svg>